<svg xmlns="http://www.w3.org/2000/svg" viewBox="0 0 220 220" role="img" aria-labelledby="title desc">
  <title id="title">CAP Operator Logo</title>
  <desc id="desc">The CAP Operator logo.</desc>

  <defs>
    <style>
      .ink { fill: none; stroke: #0040b0; stroke-width: 8; stroke-linecap: round; stroke-linejoin: round; }
      .fill { fill: #0064d9; }
      .accent { fill: none; stroke: #1D2D3E; stroke-width: 8; stroke-linecap: round; stroke-linejoin: round; }
      .accent-fill { fill: #376ac2; }
    </style>

    <marker id="arrow-head" viewBox="0 0 20 22" refX="5" refY="5" markerWidth="7" markerHeight="7" orient="auto-start-reverse">
      <path d="M 0 0 L 9 5 L 0 9 z" class="accent-fill" />
    </marker>
  </defs>

  <g transform="scale(4.2 4.2) translate(-1 -5)" >
      <path class="fill" opacity="0.5" d="M45,21a8,8,0,0,0-12-5A10,10,0,0,0,22,8C10,8,11,21,11,21.5A10,10.5,0,0,0,13,41.5v-3a7.477,7.477,0,0,1-5.639-5,7.247,7.247,0,0,1,4.666-9.164l2.279-.768-.286-1.5A7.521,7.521,0,0,1,13.9,20a10.535,10.535,0,0,1,2.2-5.8,7,7,0,0,1,6.4-2.824c3.264,0,7.5,2.9,8,5.636l.9,2,2.4-1.3a7.6,7.6,0,0,1,3.3-.9,5.5,5.5,0,0,1,5.5,4.5l.2,1,1.1.5A7,7,0,0,1,49,29,7,7,0,0,1,43,38V41A10,10,0,0,0,52,31,10,10,0,0,0,45,21.5Z"/>
  </g>
  <g transform="translate(20 20)">
    <path d="M 42 50 A 60 15 1 0 1 125 42" class="accent" opacity="0.9" marker-end="url(#arrow-head)" />
    <path d="M 138 130 A 60 15 1 0 1 60 138" class="accent" opacity="0.9" marker-end="url(#arrow-head)" />

    <circle cx="90" cy="90" r="36" class="ink" />
    <circle cx="90" cy="90" r="9" class="fill" />

    <line x1="90" y1="48" x2="90" y2="72" class="ink" />
    <line x1="127" y1="70" x2="105" y2="80" class="ink" />
    <line x1="127" y1="110" x2="105" y2="100" class="ink" />
    <line x1="90" y1="132" x2="90" y2="108" class="ink" />
    <line x1="53" y1="110" x2="75" y2="100" class="ink" />
    <line x1="53" y1="70" x2="75" y2="80" class="ink" />

    <path d="M 81 84 L 90 79 L 99 84 L 99 96 L 90 101 L 81 96 Z" class="accent" opacity="0.7" />
  </g>
</svg>
